# xmcd
# 
# Track frame offsets:
#	150
#	16835
#	29713
#	43305
#	56510
#	65015
#	77388
#	91115
#	101983
#	118370
#	129463
#	139935
#	154103
#	167743
#	179125
#	192755
#	210845
#	225270
#
# Disc length: 3174 seconds
#
# Revision: 2
# Processed by: cddbd v1.4PL0 Copyright (c) Steve Scherf et al.
# Submitted via: Audio-CD-Archiv 2.10.446
#
DISCID=f70c6412
DTITLE=Various Artist - Ridin' West Volume 1
DYEAR=1900
DGENRE=country
TTITLE0=Ghost riders in the Sky (Johnny Cash)
TTITLE1=My heroes have always been Cowboys (Waylon Jenneings)
TTITLE2=Last Roundup (Rex Allan)
TTITLE3=Happy Trails (Roy Rodgers)
TTITLE4=The Rebel Johnny Yuma (Johnny Cash)
TTITLE5=My Rifle, Pony and Me (Dean Martin)
TTITLE6=Shotgun and Pistol (Merle Haggard)
TTITLE7=Remember the Alamo (Tex Ritter)
TTITLE8=Ridin' West (The Horse Soldiers)
TTITLE9=The Searchers (Tex Ritter)
TTITLE10=Bonanza (Johnny Cash)
TTITLE11=Comanche (Johnny Horton)
TTITLE12=Blue Shadows on the Trail (Jimmie Wakely)
TTITLE13=Buffalo (The Sons of the Pioneers)
TTITLE14=The Cowboy Song (Don Edwards)
TTITLE15=Red Headed Stranger (Willie Nelson)
TTITLE16=All American Cowboy (Merle Haggard)
TTITLE17=Cowboy Heaven (Roy Rodgers)
EXTD=
EXTT0=
EXTT1=
EXTT2=
EXTT3=
EXTT4=
EXTT5=
EXTT6=
EXTT7=
EXTT8=
EXTT9=
EXTT10=
EXTT11=
EXTT12=
EXTT13=
EXTT14=
EXTT15=
EXTT16=
EXTT17=
PLAYORDER=
